<?xml version="1.0" standalone="no"?><!DOCTYPE svg PUBLIC "-//W3C//DTD SVG 1.1//EN" "http://www.w3.org/Graphics/SVG/1.1/DTD/svg11.dtd"><svg t="1629452034402" class="icon" viewBox="0 0 1024 1024" version="1.1" xmlns="http://www.w3.org/2000/svg" p-id="5025" xmlns:xlink="http://www.w3.org/1999/xlink" width="200" height="200"><defs><style type="text/css"></style></defs><path d="M0 0h1024v1024H0z" fill="#ffffff" opacity=".01" p-id="5026"></path><path d="M568.888889 56.888889a56.888889 56.888889 0 0 1 56.888889 56.888889v56.888889h170.666666a56.888889 56.888889 0 0 1 56.888889 56.888889v56.888888a56.888889 56.888889 0 0 1-56.888889 56.888889h-56.888888v56.888889h170.666666a56.888889 56.888889 0 0 1 56.888889 56.888889v56.888889a56.888889 56.888889 0 0 1-50.232889 56.490667L910.222222 568.888889v56.888889a56.888889 56.888889 0 0 1-56.888889 56.888889h-113.777777v56.888889h113.777777a56.888889 56.888889 0 0 1 56.888889 56.888888v56.888889a56.888889 56.888889 0 0 1-56.888889 56.888889h-266.410666A341.333333 341.333333 0 0 1 56.888889 625.777778V113.777778a56.888889 56.888889 0 0 1 56.888889-56.888889h455.111111zM398.222222 341.333333a284.444444 284.444444 0 1 0 0 568.888889A284.444444 284.444444 0 0 0 398.222222 341.333333z m455.111111 455.111111l-159.459555 0.056889c-11.832889 20.366222-25.656889 39.424-41.301334 56.888889L853.333333 853.333333v-56.888889zM351.004444 454.371556l48.583112 48.583111 48.583111-48.583111a28.444444 28.444444 0 1 1 40.220444 40.220444l-39.651555 39.708444h64.512a28.444444 28.444444 0 1 1 0 56.888889H425.187556c0.398222 1.820444 0.568889 3.640889 0.568888 5.575111v51.313778h87.495112a28.444444 28.444444 0 1 1 0 56.888889H425.756444v119.352889a28.444444 28.444444 0 1 1-56.888888 0v-119.352889H285.696a28.444444 28.444444 0 0 1 0-56.888889h83.171556v-51.313778c0-1.934222 0.170667-3.754667 0.568888-5.575111H285.696a28.444444 28.444444 0 0 1 0-56.888889h64.853333l-39.708444-39.708444a28.444444 28.444444 0 0 1 40.220444-40.220444zM853.333333 568.888889h-118.499555c3.128889 18.488889 4.721778 37.546667 4.721778 56.888889h113.777777v-56.888889z m56.888889-113.777778h-216.348444c10.410667 17.976889 19.228444 36.977778 26.282666 56.888889H910.222222V455.111111zM209.464889 341.333333H113.777778v56.888889h30.037333c19.342222-21.617778 41.415111-40.789333 65.649778-56.888889zM682.666667 341.333333h-95.687111c24.234667 16.099556 46.307556 35.271111 65.649777 56.888889H682.666667V341.333333z m113.777777-113.777777H113.777778v56.888888h682.666666V227.555556z m-227.555555-113.777778H113.777778v56.888889h455.111111V113.777778z" fill="#ffffff" p-id="5027"></path></svg>